<svg xmlns="http://www.w3.org/2000/svg" version="1.1" xmlns:xlink="http://www.w3.org/1999/xlink" xmlns:svgjs="http://svgjs.dev/svgjs" width="1000" height="1000"><g clip-path="url(#SvgjsClipPath1056)"><rect width="1000" height="1000" fill="#ffffff"></rect><g transform="matrix(3.6231884057971016,0,0,3.6231884057971016,0,351.4492753623189)"><svg xmlns="http://www.w3.org/2000/svg" version="1.1" xmlns:xlink="http://www.w3.org/1999/xlink" xmlns:svgjs="http://svgjs.dev/svgjs" width="276" height="82"><svg width="276" height="82" viewBox="0 0 276 82" fill="none" xmlns="http://www.w3.org/2000/svg">
<path d="M121.428 39.6011C120.497 37.04 116.19 35.7594 113.978 35.9922C108.506 36.4579 104.664 39.9503 103.268 45.8875V46.0039C93.7215 52.4067 82.5457 52.9888 71.2534 52.4067C52.5106 51.4754 26.783 44.6069 8.85509 52.5231C4.78057 54.2693 3.84927 55.4335 0.473225 57.9946C-0.807345 59.7408 0.706059 61.6035 2.68511 60.6721C12.5804 52.8724 23.0577 51.941 35.3977 52.6395C56.4687 53.9201 83.5934 61.3706 103.151 50.0784C103.733 53.2216 105.479 56.2484 106.76 59.508C103.733 61.8363 100.823 64.6303 98.4945 68.3556C90.6947 80.6955 110.252 86.6327 118.983 77.2031C123.989 71.7316 124.339 64.281 121.545 58.3439L120.497 56.3648C125.968 54.0365 131.673 52.0575 137.028 49.0307C139.123 47.6337 137.493 44.9562 135.282 46.0039C129.694 48.9143 123.989 50.8933 118.634 53.2216C116.073 48.9143 113.279 43.5592 114.21 40.9981C114.909 39.1355 117.237 39.4847 118.401 41.3473C119.566 43.4428 122.36 41.9294 121.428 39.6011ZM108.157 63.9318C108.855 67.1914 108.39 70.1017 106.876 72.7793C105.13 75.8061 102.918 75.9225 101.871 75.3404C99.193 73.827 101.754 70.451 102.918 68.9376C104.432 66.8421 106.178 65.0959 108.041 63.5825C108.041 63.6989 108.157 63.8154 108.157 63.9318ZM175.212 58.9259C170.439 55.8991 175.561 40.5324 164.851 44.2577C156.12 47.2844 151.812 56.4812 146.225 59.7408C145.526 56.3648 149.368 47.1681 150.066 45.6547C150.066 45.5382 150.183 45.3054 150.299 45.189C161.126 41.1145 175.445 27.8432 181.382 19.1121C183.827 15.5032 186.504 11.8944 187.086 7.4706C188.367 -2.65748 172.069 -0.445599 166.946 2.34835C161.009 5.60796 156.353 9.7989 152.511 15.0376C145.642 24.2343 139.822 33.8967 135.282 44.3741C134.583 45.8875 133.535 48.565 133.07 50.0784C132.022 52.9888 128.879 62.7676 134.117 64.0482C136.679 64.6302 142.616 68.8212 151.58 60.5557C155.771 56.5976 161.358 49.2635 166.946 47.168C166.364 52.7559 167.994 61.1378 173.233 63.1169C180.451 65.9108 184.409 51.4754 196.632 50.4277C200.707 50.0784 204.781 50.0784 208.972 50.3112C227.715 51.2426 248.786 58.111 266.714 50.1948C270.788 48.4486 271.72 47.2845 275.096 44.7234C276.376 42.9771 274.863 41.1145 272.884 42.0458C262.989 49.8456 252.511 50.7769 240.171 50.0784C225.503 49.2635 212.581 45.8875 196.516 46.9352C184.059 47.7501 177.307 60.3229 175.212 58.9259ZM170.206 13.1749C172.767 10.4974 178.471 4.211 182.895 5.49157C183.361 5.60798 183.594 6.07364 183.594 6.5393C183.594 11.0795 179.636 15.8525 177.074 18.9957C171.37 25.9806 161.591 35.8758 152.395 40.416C157.168 30.6372 162.988 20.9747 170.206 13.1749Z" fill="#EA580B"></path>
</svg></svg></g></g><defs><clipPath id="SvgjsClipPath1056"><rect width="1000" height="1000" x="0" y="0" rx="350" ry="350"></rect></clipPath></defs></svg>